<svg width="23" height="26" viewBox="0 0 23 26" fill="none" xmlns="http://www.w3.org/2000/svg">
<path d="M4.80002 5.30885H19.8978C20.4249 5.30885 20.9179 5.43063 21.3543 5.6625C21.7908 5.8934 22.1678 6.23537 22.462 6.67183C22.7563 7.10732 22.9316 7.58371 22.9832 8.07668C23.0359 8.56869 22.9647 9.07042 22.7679 9.55851L22.5448 10.1119C22.5361 10.1392 22.5253 10.1664 22.5127 10.1918L19.6874 17.2151C19.4468 17.8123 19.0512 18.2974 18.5534 18.6326C18.0555 18.9697 17.4583 19.1567 16.8163 19.1567H8.42129C7.6536 19.1567 6.94825 18.8801 6.40365 18.4134C5.85904 17.9457 5.47812 17.2881 5.3612 16.5282L4.36844 10.0494C4.36552 10.0348 4.36357 10.0192 4.36162 10.0026L3.74297 5.96524L3.12529 1.93283H0.572862C0.257213 1.93283 0 1.67662 0 1.35997C0 1.04432 0.256215 0.787109 0.572862 0.787109H3.61537C3.89401 0.787109 4.13855 0.990727 4.1814 1.27423L4.79908 5.30663L4.80002 5.30885ZM15.9687 20.7057H16.8416C17.4622 20.7057 18.0253 20.959 18.4335 21.3672C18.8417 21.7754 19.095 22.3385 19.095 22.9591C19.095 23.5797 18.8417 24.1428 18.4335 24.551C18.0253 24.9592 17.4622 25.2125 16.8416 25.2125H15.9687C15.3481 25.2125 14.785 24.9592 14.3768 24.551C13.9686 24.1428 13.7153 23.5797 13.7153 22.9591C13.7153 22.3385 13.9686 21.7754 14.3768 21.3672C14.785 20.959 15.3481 20.7057 15.9687 20.7057ZM16.8416 21.8504H15.9687C15.6637 21.8504 15.3871 21.9751 15.1864 22.1758C14.9847 22.3775 14.861 22.6542 14.861 22.9581C14.861 23.2631 14.9857 23.5398 15.1864 23.7405C15.388 23.9421 15.6647 24.0659 15.9687 24.0659H16.8416C17.1466 24.0659 17.4232 23.9412 17.6239 23.7405C17.8256 23.5388 17.9503 23.2621 17.9503 22.9581C17.9503 22.6532 17.8256 22.3765 17.6239 22.1758C17.4223 21.9742 17.1456 21.8504 16.8416 21.8504ZM7.93605 20.7057H8.80898C9.42957 20.7057 9.99268 20.959 10.4009 21.3672C10.8091 21.7754 11.0624 22.3385 11.0624 22.9591C11.0624 23.5797 10.8091 24.1428 10.4009 24.551C9.99268 24.9592 9.42957 25.2125 8.80898 25.2125H7.93605C7.31546 25.2125 6.75235 24.9592 6.34414 24.551C5.93594 24.1428 5.68264 23.5797 5.68264 22.9591C5.68264 22.3385 5.93594 21.7754 6.34414 21.3672C6.75235 20.959 7.31546 20.7057 7.93605 20.7057ZM8.80898 21.8504H7.93605C7.6311 21.8504 7.35444 21.9751 7.15374 22.1758C6.95207 22.3775 6.82834 22.6542 6.82834 22.9581C6.82834 23.2631 6.95304 23.5398 7.15374 23.7405C7.35541 23.9421 7.6321 24.0659 7.93605 24.0659H8.80898C9.11392 24.0659 9.39059 23.9412 9.59129 23.7405C9.79296 23.5388 9.91766 23.2621 9.91766 22.9581C9.91766 22.6532 9.79296 22.3765 9.59129 22.1758C9.38962 21.9742 9.11293 21.8504 8.80898 21.8504ZM5.42054 9.36639H21.6145L21.708 9.13355C21.8347 8.81984 21.8805 8.50322 21.8473 8.19633C21.8152 7.89138 21.7032 7.59132 21.5132 7.31073C21.3242 7.0321 21.0884 6.81678 20.8156 6.67163C20.5438 6.52744 20.233 6.45145 19.895 6.45145H4.97248L5.41967 9.36552L5.42054 9.36639ZM21.1536 10.5111H5.59587L6.49219 16.3584C6.56526 16.8397 6.80492 17.2528 7.14494 17.546C7.48593 17.8393 7.93311 18.0127 8.42023 18.0127H16.8152C17.2254 18.0127 17.6024 17.8958 17.9132 17.6854C18.225 17.4749 18.4744 17.168 18.6264 16.79L21.1526 10.511L21.1536 10.5111Z" fill="#8E5C42"/>
</svg>
