<svg width="22" height="24" viewBox="0 0 22 24" fill="none" xmlns="http://www.w3.org/2000/svg">
<path d="M10.5937 0.136049L0.260404 8.13584C0.0984043 8.26034 -0.000795197 8.46274 4.80241e-06 8.66707V23.3334C3.81357e-05 23.6824 0.317605 24 0.666671 24H7.66667C8.01574 24 8.3333 23.6824 8.33334 23.3334V18.6667C8.33334 17.1778 9.51114 16.0001 11 16.0001C12.4889 16.0001 13.6667 17.1778 13.6667 18.6667V23.3334C13.6667 23.6824 13.9843 24 14.3333 24H21.3333C21.6824 24 22 23.6824 22 23.3334V8.66707C22 8.46274 21.9016 8.26034 21.7396 8.13584L11.4063 0.136049C11.1573 -0.0589839 10.8097 -0.0311839 10.5937 0.136049ZM11 1.50061L20.6667 8.98997V22.6667H15V18.6667C15 16.4623 13.2045 14.6668 11 14.6668C8.79554 14.6668 7 16.4623 7 18.6667V22.6667H1.33334V8.98997L11 1.50061Z" fill="#8E5C42"/>
</svg>
