<svg width="24" height="24" viewBox="0 0 24 24" fill="none" xmlns="http://www.w3.org/2000/svg">
<path d="M23.8077 19.0013L20.1032 15.2965C20.0113 15.2046 19.8942 15.1421 19.7667 15.1169C19.6392 15.0917 19.5071 15.1049 19.3871 15.1548L15.8534 16.6241C12.0418 14.3734 9.62577 11.9578 7.37493 8.14615L8.84435 4.61292C8.89432 4.49297 8.9075 4.36088 8.88223 4.23342C8.85696 4.10596 8.79437 3.9889 8.70242 3.89708L4.99738 0.192248C4.93647 0.131275 4.86414 0.0829105 4.78452 0.0499223C4.7049 0.016934 4.61956 -3.03292e-05 4.53337 1.38881e-07H3.23195C3.14569 -5.59783e-05 3.06026 0.0168947 2.98055 0.0498824C2.90085 0.0828702 2.82843 0.131248 2.76744 0.192248L0.192204 2.76785C0.105515 2.85454 0.0448437 2.96378 0.0170663 3.08318C-0.0107111 3.20259 -0.00448385 3.32738 0.0350423 3.44343C1.82266 8.68909 4.33957 12.8863 7.72925 16.275C11.1189 19.6637 15.313 22.1769 20.5564 23.9649C20.6724 24.0045 20.7972 24.0107 20.9167 23.9829C21.0361 23.9552 21.1453 23.8945 21.232 23.8078L23.8077 21.2322C23.8687 21.1712 23.9171 21.0988 23.9501 21.0191C23.9831 20.9394 24.0001 20.8539 24 20.7677V19.4655C24 19.3793 23.983 19.294 23.95 19.2143C23.9171 19.1347 23.8687 19.0623 23.8077 19.0013ZM22.6875 20.4949L20.5935 22.588C10.9215 19.1884 4.81054 13.0778 1.41079 3.40627L3.5037 1.31322H4.26163L7.46396 4.51589L6.03867 7.94358C5.99994 8.03672 5.98322 8.13754 5.9898 8.23819C5.99638 8.33885 6.02608 8.43663 6.0766 8.52394C7.17326 10.4863 8.52717 12.2935 10.1024 13.8973C11.7064 15.4725 13.5136 16.8263 15.4761 17.9229C15.5634 17.9734 15.6612 18.0031 15.7619 18.0096C15.8626 18.0161 15.9634 17.9994 16.0565 17.9606L19.4857 16.5346L22.6875 19.7373V20.4949Z" fill="#8E5C42"/>
</svg>
