<svg width="24" height="24" viewBox="0 0 24 24" fill="none" xmlns="http://www.w3.org/2000/svg">
<path d="M13.0227 3.44651C13.4272 3.28202 13.8494 3.18832 14.2721 3.16596C14.2013 2.77948 14.0804 2.44943 13.9282 2.20615C13.5358 1.58011 13.1361 1.81061 12.8566 2.39034C12.716 2.68153 12.6149 3.05577 12.5686 3.48005C12.7192 3.46035 12.8715 3.44811 13.0227 3.44651ZM19.7212 16.7786C19.3996 16.9143 19.1947 16.4256 19.5157 16.2899L22.0055 15.2337C22.327 15.0995 22.5335 15.5866 22.212 15.7224L19.7212 16.7786ZM15.0296 14.9452C14.6793 14.9452 14.6793 14.4139 15.0296 14.4139H16.9264C17.2766 14.4139 17.2766 14.9452 16.9264 14.9452H15.0296ZM13.4406 16.3639C13.0903 16.3639 13.0903 15.831 13.4406 15.831H16.9264C17.2766 15.831 17.2766 16.3639 16.9264 16.3639H13.4406ZM13.4406 17.7804C13.0903 17.7804 13.0903 17.2476 13.4406 17.2476H16.9264C17.2766 17.2476 17.2766 17.7804 16.9264 17.7804H13.4406ZM13.4406 19.1975C13.0903 19.1975 13.0903 18.6647 13.4406 18.6647H16.9264C17.2766 18.6647 17.2766 19.1975 16.9264 19.1975H13.4406ZM5.08966 22.3559L1.94616 18.2681L0.636595 19.2747L3.78009 23.3626L5.08966 22.3559ZM2.20595 17.7341L2.2842 17.8353C2.6643 17.4323 2.78833 16.8967 2.92728 16.2915C3.30471 14.6572 3.72686 13.9284 4.88151 12.9191C5.70399 12.1993 6.22302 11.7452 6.8842 11.6063C7.07105 11.5669 7.30049 11.5669 7.55442 11.5988V7.13672C7.55442 6.06511 8.42959 5.18994 9.5012 5.18994H9.83019C10.0729 4.82475 10.3748 4.50481 10.7235 4.24077C10.6905 3.35814 10.8321 2.40152 11.2154 1.603C11.8776 0.225289 13.4033 -0.53064 14.7331 0.433436C15.6775 1.11856 16.073 2.40258 16.1518 3.53435C16.3195 3.6126 16.4824 3.7031 16.6394 3.80584L16.9413 3.67755C17.9282 3.25966 19.0733 3.72439 19.4928 4.71136L23.8144 14.9015C24.2339 15.8869 23.7691 17.0336 22.7822 17.452L18.5857 19.2311C18.4893 20.2196 17.6514 20.9905 16.6463 20.9905H9.70722C8.8017 21.5606 8.09581 21.7134 7.0588 21.831C6.53391 21.8901 6.05959 21.9444 5.63425 22.193C5.73859 22.3288 5.78224 22.4917 5.6236 22.6141L3.89295 23.945C3.7785 24.0339 3.61081 24.0131 3.52191 23.8965L0.0558069 19.3876C-0.0346918 19.2715 -0.0123332 19.1054 0.102653 19.0149L1.83331 17.6857C1.94936 17.5968 2.11545 17.6175 2.20595 17.7341ZM2.61 18.2606L5.30792 21.7693C5.8392 21.4344 6.38858 21.3722 6.99971 21.303C9.18925 21.0554 10.1054 20.111 11.7818 18.8222C12.0112 18.6444 12.0565 18.309 11.8781 18.0785C11.7014 17.8491 11.3665 17.8039 11.1355 17.9806L10.9226 18.1451C10.6463 18.358 10.3237 17.9369 10.5984 17.724C10.9561 17.4493 11.3138 17.1746 11.671 16.8983C11.926 16.7035 11.9745 16.3356 11.7796 16.0817C11.5848 15.8283 11.2154 15.7783 10.962 15.9747L10.3492 16.4453C10.2332 16.5342 10.0655 16.5135 9.97659 16.3969C9.88769 16.2824 9.90845 16.1147 10.025 16.0258L11.0977 15.2002C11.3511 15.0053 11.4011 14.6375 11.2047 14.3825C10.995 14.1094 10.6511 14.0929 10.378 14.2829L9.70509 14.8004C9.58904 14.8893 9.42295 14.8685 9.33245 14.7519C9.24355 14.6359 9.26431 14.4698 9.38089 14.3809L14.3408 10.5661C14.7496 10.252 14.6107 9.59296 14.0932 9.53068C13.9346 9.51098 13.7642 9.55357 13.6178 9.65152C11.4629 11.1 9.30796 12.5475 7.15303 13.9944C7.03059 14.0758 6.8661 14.0444 6.78465 13.922C6.7032 13.7996 6.7362 13.6351 6.85705 13.5536L8.5712 12.4021C8.1549 12.2526 7.41974 12.0354 6.9896 12.1259C6.46577 12.2361 5.98613 12.6539 5.2302 13.3167C4.10163 14.3037 3.78009 14.9553 3.44525 16.4102C3.28182 17.1241 3.13542 17.7549 2.61 18.2606ZM8.08623 11.6995C8.41362 11.7809 8.7655 11.8986 9.11259 12.0407L13.3229 9.21127C14.1874 8.63048 15.2362 9.28846 15.1004 10.2419C15.0594 10.5272 14.912 10.7971 14.666 10.9856L11.1392 13.6973C11.8137 13.9523 12.0703 14.7807 11.6551 15.3769C11.8648 15.4418 12.0565 15.5701 12.1997 15.757C12.5739 16.243 12.4818 16.9447 11.9958 17.3189L11.8632 17.4216C12.6176 17.7309 12.7474 18.7482 12.106 19.2417C11.572 19.6522 11.0423 20.0674 10.4946 20.4597H16.6453C17.4241 20.4597 18.0608 19.8214 18.0608 19.0442V7.13619C18.0608 6.35897 17.4241 5.72069 16.6453 5.72069H16.1731C16.0826 5.72069 15.9953 5.67544 15.9452 5.59399C15.233 4.42922 13.8856 3.80265 12.5409 4.01985C12.5441 4.55113 12.6314 5.03396 12.7778 5.41246C13.3091 5.3161 13.8611 5.48326 14.2508 5.87294C14.8981 6.52027 14.8981 7.58123 14.2508 8.22856C13.6051 8.8743 12.5425 8.8743 11.8952 8.22856C11.5119 7.84528 11.3415 7.30228 11.432 6.771C11.0727 6.21257 10.8709 5.53809 10.7799 4.88491C10.5595 5.08986 10.3679 5.32409 10.2098 5.57908C10.1661 5.66373 10.0772 5.72069 9.97446 5.72069H9.50067C8.72345 5.72069 8.08676 6.35897 8.08676 7.13619V11.6995H8.08623ZM14.8119 3.17342C15.0775 3.19631 15.3416 3.24582 15.5982 3.32301C15.4954 2.41163 15.1622 1.4023 14.4195 0.863571C13.3618 0.0953972 12.2103 0.758167 11.6929 1.83084C11.1014 3.06056 11.1014 4.9259 11.6929 6.15402C12.1544 7.11383 13.1478 7.79737 14.1842 7.26768C14.2369 6.99299 14.1874 6.7034 14.0378 6.45745C13.8702 6.5964 13.6695 6.68689 13.4432 6.68689C13.0099 6.68689 12.6346 6.3579 12.378 5.82396C11.8861 4.80239 11.8861 3.1846 12.378 2.16143C12.8443 1.19096 13.7605 0.939164 14.3775 1.92453C14.5782 2.24234 14.7304 2.67674 14.8119 3.17342ZM13.7573 7.95387C13.1158 8.04916 12.502 7.85592 12.0085 7.43803C12.2662 8.14871 13.152 8.41116 13.7573 7.95387ZM13.0541 5.91659C13.2335 6.14124 13.4406 6.22908 13.6578 6.08108C13.4768 5.97142 13.267 5.91393 13.0541 5.91659ZM18.5937 18.6513L22.5761 16.9627C23.2927 16.6577 23.628 15.8235 23.3262 15.1065L19.003 4.91631C18.6996 4.20084 17.8622 3.8628 17.1467 4.16624L16.7225 4.34564C16.6378 4.38663 16.5356 4.38184 16.4536 4.32275C15.8547 3.89581 15.1441 3.67968 14.4318 3.69032C15.1909 3.97566 15.8531 4.4947 16.3163 5.18887H16.6453C17.7169 5.18887 18.5937 6.06405 18.5937 7.13566V18.6513Z" fill="#8E5C42"/>
</svg>
