<svg width="21" height="24" viewBox="0 0 21 24" fill="none" xmlns="http://www.w3.org/2000/svg">
<path d="M10.8111 13.1613C14.3111 13.0065 17.1111 10.1032 17.1111 6.58065C17.1111 2.94194 14.1556 0 10.5 0C6.84444 0 3.88889 2.94194 3.88889 6.58065C3.88889 10.1032 6.68889 12.9677 10.1889 13.1613C4.43333 13.3548 0 17.9226 0 24H1.55556C1.55556 18.5806 5.40556 14.7097 10.5 14.7097C15.5944 14.7097 19.4444 18.5806 19.4444 24H21C21 17.9226 16.5667 13.3548 10.8111 13.1613ZM5.44444 6.61935C5.44444 3.83226 7.7 1.5871 10.5 1.5871C13.3 1.5871 15.5556 3.83226 15.5556 6.61935C15.5556 9.40645 13.3 11.6516 10.5 11.6516C7.7 11.6516 5.44444 9.36774 5.44444 6.61935Z" fill="#8E5C42"/>
</svg>
